<?xml version="1.0" encoding="UTF-8"?>
<svg xmlns="http://www.w3.org/2000/svg" xmlns:xlink="http://www.w3.org/1999/xlink" width="16px" height="16px" viewBox="0 0 16 16" version="1.1">
<g id="surface1">
<path style=" stroke:none;fill-rule:nonzero;fill:rgb(31.764707%,89.019608%,27.058825%);fill-opacity:1;" d="M 11.921875 4.027344 C 10.875 2.976562 9.480469 2.398438 7.996094 2.398438 C 4.9375 2.398438 2.449219 4.890625 2.449219 7.949219 C 2.449219 8.925781 2.703125 9.882812 3.1875 10.726562 L 2.398438 13.601562 L 5.34375 12.828125 C 6.152344 13.269531 7.066406 13.503906 7.996094 13.503906 C 11.054688 13.503906 13.601562 11.011719 13.601562 7.953125 C 13.601562 6.46875 12.96875 5.078125 11.921875 4.027344 Z M 7.996094 12.566406 C 7.167969 12.566406 6.355469 12.34375 5.648438 11.925781 L 5.480469 11.824219 L 3.734375 12.28125 L 4.199219 10.578125 L 4.089844 10.40625 C 3.628906 9.671875 3.386719 8.824219 3.386719 7.949219 C 3.386719 5.40625 5.453125 3.335938 8 3.335938 C 9.234375 3.335938 10.390625 3.816406 11.261719 4.691406 C 12.128906 5.5625 12.664062 6.71875 12.664062 7.953125 C 12.664062 10.496094 10.539062 12.566406 7.996094 12.566406 Z M 10.527344 9.113281 C 10.390625 9.042969 9.707031 8.707031 9.578125 8.664062 C 9.453125 8.613281 9.359375 8.59375 9.265625 8.734375 C 9.175781 8.871094 8.910156 9.183594 8.828125 9.277344 C 8.746094 9.371094 8.664062 9.382812 8.527344 9.3125 C 7.710938 8.90625 7.175781 8.585938 6.640625 7.664062 C 6.496094 7.417969 6.78125 7.433594 7.046875 6.90625 C 7.09375 6.8125 7.070312 6.734375 7.035156 6.664062 C 7 6.59375 6.722656 5.910156 6.609375 5.632812 C 6.496094 5.363281 6.378906 5.398438 6.296875 5.394531 C 6.214844 5.390625 6.121094 5.390625 6.03125 5.390625 C 5.9375 5.390625 5.789062 5.425781 5.660156 5.5625 C 5.53125 5.703125 5.175781 6.039062 5.175781 6.71875 C 5.175781 7.402344 5.671875 8.0625 5.738281 8.15625 C 5.808594 8.246094 6.71875 9.648438 8.109375 10.25 C 8.988281 10.628906 9.335938 10.664062 9.773438 10.597656 C 10.042969 10.558594 10.59375 10.261719 10.710938 9.9375 C 10.824219 9.613281 10.824219 9.335938 10.789062 9.277344 C 10.757812 9.214844 10.664062 9.179688 10.527344 9.113281 Z M 10.527344 9.113281 "/>
</g>
</svg>
